<?xml version="1.0" encoding="utf-8"?>
<!-- Generator: Adobe Illustrator 19.2.0, SVG Export Plug-In . SVG Version: 6.00 Build 0)  -->
<svg version="1.1" id="Layer_1" xmlns="http://www.w3.org/2000/svg" xmlns:xlink="http://www.w3.org/1999/xlink" x="0px" y="0px"
	 viewBox="0 0 500 400" style="enable-background:new 0 0 500 400;" xml:space="preserve">
<style type="text/css">
	.st0{fill:#26A9E0;}
	.st1{fill:#FFFFFF;}
</style>
<title>bluetail_logo</title>
<g>
	<rect x="106.9" y="56.9" class="st0" width="286.2" height="286.2"/>
	<g>
		<g>
			<path class="st1" d="M142.4,315.6v-33.9h12.7c2.1-0.1,4.2,0.3,6.2,1c1.5,0.7,2.8,1.8,3.7,3.2c0.9,1.3,1.3,2.9,1.3,4.5
				c0,1.4-0.4,2.9-1.1,4.1c-0.9,1.3-2.1,2.4-3.6,3.1c1.9,0.5,3.5,1.6,4.7,3.1c1.1,1.5,1.7,3.3,1.7,5.1c0,1.5-0.3,3.1-1,4.4
				c-0.6,1.2-1.4,2.3-2.5,3.2c-1.1,0.8-2.4,1.4-3.7,1.7c-1.8,0.4-3.6,0.6-5.5,0.6L142.4,315.6L142.4,315.6z M146.9,296h7.3
				c1.4,0.1,2.9-0.1,4.3-0.4c1-0.3,1.9-0.9,2.6-1.7c0.6-0.9,0.9-1.9,0.9-3c0-1.1-0.3-2.1-0.8-3c-0.5-0.8-1.3-1.5-2.3-1.8
				c-1.7-0.4-3.4-0.5-5.2-0.5h-6.8L146.9,296L146.9,296L146.9,296z M146.9,311.6h8.4c1,0,2,0,3-0.2c0.9-0.1,1.8-0.5,2.6-0.9
				c0.7-0.5,1.3-1.1,1.7-1.9c0.5-0.9,0.7-1.9,0.7-2.9c0-1.2-0.3-2.3-1-3.3c-0.7-0.9-1.6-1.6-2.7-2c-1.6-0.4-3.3-0.6-5-0.6h-7.8
				L146.9,311.6L146.9,311.6L146.9,311.6z"/>
			<path class="st1" d="M174,315.6v-33.9h4.5v29.9h16.7v4L174,315.6L174,315.6z"/>
			<path class="st1" d="M222.8,281.7h4.4v19.6c0.1,2.8-0.3,5.5-1.1,8.1c-0.8,2.1-2.3,3.8-4.2,4.9c-2.4,1.4-5.1,2-7.9,1.9
				c-2.7,0.1-5.4-0.5-7.8-1.7c-2-1-3.5-2.7-4.3-4.8c-1-2.7-1.4-5.6-1.3-8.5v-19.6h4.5v19.6c-0.1,2.2,0.2,4.4,0.8,6.5
				c0.5,1.4,1.5,2.5,2.8,3.2c1.5,0.8,3.2,1.2,4.9,1.1c3.3,0,5.7-0.8,7.1-2.3s2.1-4.4,2.1-8.6L222.8,281.7L222.8,281.7L222.8,281.7z"
				/>
			<path class="st1" d="M234.9,315.6v-33.9h24.5v4h-20v10.4h18.8v4h-18.8v11.6h20.8v4L234.9,315.6L234.9,315.6L234.9,315.6z"/>
			<path class="st1" d="M275,315.6v-29.9h-11.2v-4h26.9v4h-11.2v29.9L275,315.6L275,315.6z"/>
			<path class="st1" d="M288.1,315.6l13-33.9h4.8l13.9,33.9h-5.1l-4-10.3h-14.2l-3.7,10.3L288.1,315.6L288.1,315.6z M297.9,301.7
				h11.5l-3.5-9.4c-1.1-2.9-1.9-5.2-2.4-7c-0.4,2.2-1.1,4.4-1.8,6.5L297.9,301.7z"/>
			<path class="st1" d="M324.2,315.6v-33.9h4.5v33.9L324.2,315.6L324.2,315.6z"/>
			<path class="st1" d="M336.4,315.6v-33.9h4.5v29.9h16.7v4L336.4,315.6L336.4,315.6z"/>
		</g>
		<g>
			<path class="st1" d="M297.8,83.8h-95.6c-20.5,0-37.1,16.6-37.1,37c0,0,0,0,0,0v87.1l0.7-1l7.6-4.1l-3.7-2c1-1.5,1.9-3.1,2.9-4.6
				l7.2-3.9l-3.7-2c0.9-1.6,1.8-3.2,2.7-4.7l7.1-3.8l-3.8-2l2.5-4.6l7.2-3.8l-4-2.1l2.3-4.1l7.9-4.2l-4.2-2.3
				c4.6-8.1,10.2-15.5,16.7-22.1c15.7-16.3,47.1-30.2,69.4-19.8c4.7,2.2,10.7,6.3,14.4,11.6c0.8,1.2,2.1,1.9,3.5,2.1l28,2.6
				c1.6,0.1,3.1,1.1,4,2.5c0.2,0.4,0.1,0.9-0.2,1.1c0,0,0,0,0,0l-0.2,0.1l-32.3,8.4c-1.2,0.3-2.2,1-2.9,2c-3,3.9-5.6,8.2-7.8,12.7
				c-4.1,9.2-4.1,17.8-2.8,32.6c0.3,3.7,0.7,7.2,1,10.4l-6.6,3.5l7.5,4.1c0.2,1.1,0.3,2.3,0.5,3.4l-6,3.2l7.2,3.9
				c0.3,1.4,0.5,2.7,0.8,4l-5.2,2.8l6.6,3.5c0.3,1.3,0.6,2.6,0.9,3.8l-6.2,3.3l8,4.3c0.2,0.9,0.4,1.7,0.5,2.6l-7.1,3.8l7.9,4.2v0.2
				h4.6c20.5,0,37.1-16.5,37.2-37c0,0,0,0,0,0l0,0v-95.6C334.9,100.4,318.3,83.8,297.8,83.8L297.8,83.8L297.8,83.8z M304.1,111.3
				c-4.2,0-7.5-3.4-7.5-7.5c0-4.2,3.4-7.5,7.5-7.5c4.2,0,7.5,3.4,7.5,7.5S308.2,111.3,304.1,111.3L304.1,111.3L304.1,111.3z"/>
			<path class="st1" d="M239.4,185.1l7.8-2l-0.4-0.7l-7.3-0.7c-0.8-1.3-2-2.4-3.4-3c-5-2.3-11.6,1.1-15.4,4.4
				c-4.1,3.4-4,5.9-8.2,12.9c-4,6.7-8.3,11.5-16,20.3c-4,4.5-6.9,7.3-8.4,9.6c-2.8,3.3-5.2,6.6-6.9,8.3l0.9,0.3
				c-1.2,1.1-3,3.9-0.2,4.2c2.3,0.3,4.6-3.6,6.1-5.8l0,0l-16.2,23.4c1,0,2-0.2,2.9-0.6c-0.2,0.7,8.3-9.7,13.4-14.8
				c0.5-0.5,2.1-2.6,4.1-5.4c0.4,0.1,0.8,0.1,1.1,0.1c3.4-0.1,4.2-3.6,8.3-4.3c2.7-0.4,4,0.8,6.6,1.4c0.9,0.2,1.7,0.3,2.6,0.2
				l5.6,17.1c-0.6,0.7-1,1.6-1,2.5c0,0.2,0,0.3,0,0.5c0.2-2,2-3.4,4-3.2c0,0,0,0,0,0h0.2l0,0c1.6,0.2,2.9,1.6,3.1,3.2
				c0-0.2,0-0.3,0-0.5c0-1.4-0.8-2.6-2-3.3l0,0l-7.3-16.7c3.6-0.9,7.1-3.2,10.6-5.5c6.5-4.4,14.4-9.6,14.8-17.2
				c0.2-3.6-1.4-4.9-2.2-14.3c-0.3-3.3-0.3-5.2,0.7-7.2C237.9,187.1,238.6,186.1,239.4,185.1z M219.2,248.8c-0.5,0-1.1,0.1-1.5,0.3
				l-5.1-15.8l6.8,15.5L219.2,248.8L219.2,248.8L219.2,248.8z"/>
		</g>
	</g>
</g>
</svg>
