<?xml version="1.0" encoding="utf-8"?>
<!-- Generator: Adobe Illustrator 19.2.0, SVG Export Plug-In . SVG Version: 6.00 Build 0)  -->
<svg version="1.1" id="Layer_1" xmlns="http://www.w3.org/2000/svg" xmlns:xlink="http://www.w3.org/1999/xlink" x="0px" y="0px"
	 viewBox="0 0 500 400" style="enable-background:new 0 0 500 400;" xml:space="preserve">
<style type="text/css">
	.st0{fill:#8BC53F;}
	.st1{fill:#FFFFFF;}
</style>
<title>crocodile</title>
<g>
	<path class="st0" d="M147.8,342.6c-3,1.3-6.2,2-9.5,1.9c-9.9,0-16.4-6.8-16.4-16.8c0-10,6.9-17.5,17.7-17.5c2.9,0,5.7,0.5,8.3,1.7
		l-1.4,4.6c-2.1-1.1-4.5-1.7-6.9-1.6c-7.5,0-11.6,5.6-11.6,12.4c0,7.6,4.9,12.3,11.4,12.3c2.5,0,5.1-0.5,7.3-1.6L147.8,342.6z"/>
	<path class="st0" d="M154.8,321.2c0-3.9-0.1-7.2-0.3-10.3h5.2l0.2,6.5h0.3c1.5-4.4,5.1-7.2,9.1-7.2c0.6,0,1.1,0.1,1.7,0.2v5.6
		c-0.7-0.1-1.4-0.2-2.1-0.1c-4.2,0-7.2,3.2-8,7.7c-0.2,0.9-0.3,1.9-0.3,2.8v17.5h-5.9L154.8,321.2L154.8,321.2z"/>
	<path class="st0" d="M206.1,327.1c0,12.2-8.4,17.5-16.4,17.5c-8.9,0-15.8-6.5-15.8-16.9c0-11,7.2-17.5,16.3-17.5
		C199.7,310.2,206.1,317.1,206.1,327.1z M180,327.5c0,7.2,4.2,12.6,10,12.6s10-5.4,10-12.8c0-5.6-2.8-12.6-9.9-12.6
		C183,314.7,180,321.2,180,327.5L180,327.5z"/>
	<path class="st0" d="M237.1,342.6c-3,1.3-6.2,2-9.5,1.9c-9.9,0-16.4-6.8-16.4-16.8c0-10,6.9-17.5,17.7-17.5c2.9,0,5.7,0.5,8.3,1.7
		l-1.4,4.6c-2.1-1.1-4.5-1.7-6.9-1.6c-7.5,0-11.6,5.6-11.6,12.4c0,7.6,4.9,12.3,11.4,12.3c2.5,0,5.1-0.5,7.3-1.6L237.1,342.6z"/>
	<path class="st0" d="M273.5,327.1c0,12.2-8.4,17.5-16.4,17.5c-8.9,0-15.8-6.5-15.8-16.9c0-11,7.2-17.5,16.3-17.5
		C267.1,310.2,273.5,317.1,273.5,327.1z M247.4,327.5c0,7.2,4.2,12.6,10,12.6s10-5.4,10-12.8c0-5.6-2.8-12.6-9.9-12.6
		C250.4,314.7,247.4,321.2,247.4,327.5L247.4,327.5z"/>
	<path class="st0" d="M309.5,295.6v39.8c0,2.9,0.1,6.3,0.3,8.5h-5.4l-0.3-5.7H304c-2.2,4.1-6.6,6.6-11.3,6.5
		c-8,0-14.1-6.8-14.1-16.7c-0.1-10.9,6.8-17.7,14.8-17.7c5,0,8.4,2.4,9.9,5h0.1v-19.6H309.5L309.5,295.6z M303.5,324.4
		c0-0.8-0.1-1.7-0.3-2.5c-0.9-4.1-4.5-7-8.6-6.9c-6.2,0-9.9,5.4-9.9,12.7c0,6.7,3.3,12.2,9.7,12.2c4.2,0,7.9-3,8.8-7.1
		c0.2-0.8,0.3-1.7,0.3-2.6L303.5,324.4L303.5,324.4z"/>
	<path class="st0" d="M326.1,301.7c0,2-1.7,3.7-3.7,3.7c-2,0-3.7-1.7-3.7-3.7c-0.1-2,1.5-3.7,3.6-3.7c0.1,0,0.1,0,0.2,0
		c2-0.1,3.6,1.5,3.7,3.4C326.1,301.5,326.1,301.6,326.1,301.7z M319.4,343.9v-32.9h6v32.9H319.4L319.4,343.9z"/>
	<path class="st0" d="M335.3,295.6h6v48.3h-6V295.6z"/>
	<path class="st0" d="M354.7,328.5c0.1,8.1,5.3,11.4,11.3,11.4c3.1,0.1,6.2-0.5,9.1-1.7l1,4.3c-3.5,1.4-7.2,2.1-10.9,2
		c-10.1,0-16.2-6.7-16.2-16.6c0-9.9,5.9-17.7,15.5-17.7c10.7,0,13.6,9.5,13.6,15.5c0,0.9-0.1,1.9-0.2,2.8L354.7,328.5L354.7,328.5z
		 M372.2,324.2c0.1-3.8-1.6-9.7-8.3-9.7c-6.1,0-8.7,5.6-9.2,9.7H372.2L372.2,324.2z"/>
	<ellipse class="st1" cx="366.6" cy="148.2" rx="21.6" ry="20.7"/>
	<path class="st0" d="M366.6,174.1c-14.7,0-26.7-11.6-26.7-25.9c0-14.3,12-25.8,26.7-25.8s26.7,11.6,26.7,25.8
		C393.4,162.5,381.4,174.1,366.6,174.1z M366.6,132.7c-9.1,0-16.5,7-16.5,15.6s7.4,15.6,16.5,15.6c9.1,0,16.5-7,16.5-15.6
		S375.7,132.6,366.6,132.7L366.6,132.7z"/>
	<ellipse class="st1" cx="350.2" cy="200.9" rx="13.7" ry="13.2"/>
	<path class="st0" d="M350.2,219.2c-10.1-0.3-18-8.7-17.7-18.8c0.3-10.1,8.7-18,18.8-17.7c9.9,0.3,17.7,8.4,17.7,18.3
		C368.9,211.2,360.5,219.3,350.2,219.2z M350.2,192.9c-4.5,0.3-7.8,4.1-7.5,8.6c0.3,4.5,4.1,7.8,8.6,7.5c4.3-0.3,7.6-3.8,7.6-8.1
		C358.7,196.3,354.8,192.7,350.2,192.9z"/>
	<path class="st1" d="M339.8,99.1c0-21.4-18-38.7-40.3-38.7c-10,0-19.6,3.6-27.1,10.1c-9.5-4.2-19.8-6.4-30.2-6.3
		c-27,0-49.4,13.5-54.2,31.4c-22.7,4.8-39.2,19.6-39.2,37c0,21.4,24.8,38.7,55.2,38.7c6.3,0,12.5-0.7,18.6-2.3
		c9.7,11,27.1,18.4,47,18.4c30.5,0,55.2-17.3,55.2-38.7c-0.1-5.8-1.9-11.5-5.2-16.2C332,126,339.7,113.1,339.8,99.1z"/>
	<path class="st0" d="M269.5,192.6c-19.5,0-37.4-6.6-48.7-17.9c-5.5,1.2-11.2,1.8-16.9,1.8c-33.3,0-60.3-19.6-60.3-43.8
		c0-18.9,16.1-35.2,40.4-41.3c7-18.8,30.9-32.2,58.2-32.2c10,0,20,1.8,29.4,5.5c8.1-6.1,17.9-9.4,27.9-9.3c25,0,45.4,19.6,45.4,43.8
		c-0.1,14-6.9,27.1-18.4,35.2c2.2,4.5,3.4,9.5,3.4,14.5C329.9,173,302.9,192.6,269.5,192.6z M224.3,163.4l2.1,2.3
		c9.1,10.3,25.6,16.7,43.2,16.7c27.6,0,50.1-15.1,50.1-33.6c-0.1-4.8-1.6-9.5-4.3-13.4l-3-4.6l4.8-2.7c10.7-5.8,17.4-16.9,17.5-29
		c0-18.5-15.8-33.6-35.2-33.6c-8.7,0-17.2,3.1-23.8,8.9l-2.5,2.2l-3-1.4c-8.8-3.9-18.4-5.9-28.1-5.8c-24.2,0-45,11.6-49.3,27.6
		l-0.8,3l-3,0.6c-20.7,4.4-35.2,17.6-35.2,32c0,18.5,22.5,33.6,50.1,33.6c5.8,0,11.7-0.7,17.3-2.1L224.3,163.4z"/>
	<path class="st0" d="M296.5,119.7c-0.1,21.3-17.4,38.4-38.6,38.3c-21.3-0.1-38.4-17.4-38.3-38.6c0.1-21.3,17.4-38.4,38.6-38.3
		C279.4,81.3,296.4,98.5,296.5,119.7z M258.1,151c17.3-0.1,31.4-14.2,31.3-31.5s-14.2-31.4-31.5-31.3c-17.3,0.1-31.3,14.1-31.3,31.5
		C226.7,137,240.8,150.9,258.1,151L258.1,151z"/>
	<path class="st0" d="M254.5,109.2c0-3,0-6.1,0-9.1c0-2.5,0.4-4.8,3.5-4.8c3.1,0,3.6,2.3,3.6,4.7c0,5.2-0.1,10.5,0.1,15.7
		c0.1,1.6,0.7,3,1.8,4.2c2,2.4,4.4,4.5,6.6,6.8c1.6,1.6,2,3.5,0.4,5.2c-1.6,1.7-3.7,1.4-5.4-0.3c-3-3-6.1-5.9-8.9-9.1
		c-0.9-1.2-1.4-2.6-1.5-4.1C254.3,115.4,254.5,112.3,254.5,109.2z"/>
	<path class="st0" d="M325.7,287.2h-215c-2.6,0.3-4.1,0.5-4.1,0.5s13.9,1.7,34.9,2.9c5.2,0.3,10.9,0.7,16.9,0.9s12.3,0.6,18.8,0.7
		s13.3,0.4,20.2,0.4l20.8,0.2l20.8-0.2c6.9,0,13.6-0.3,20.2-0.4c13.1-0.4,25.3-0.9,35.7-1.6c20.9-1.2,34.9-2.9,34.9-2.9
		S328.3,287.5,325.7,287.2z"/>
	<path class="st0" d="M309.3,196.7h-7.9c-18.7,0-34.7,13.4-37.9,31.8l5.5,2l-7,0.8c-2.6,0.3-5.1,0.6-7.7,0.8l-129.7,26.7
		c-3.7,0.8-6.4,4-6.4,7.8v3.8c2.3,1.5,2.9,4.5,1.4,6.8c-0.4,0.6-0.9,1.1-1.4,1.4v7h19.4l2.6-7.3l2.3,7.3H320V285l0.2-54.6l0.1-22.8
		C320.2,201.6,315.3,196.7,309.3,196.7z M126.9,279.4c-2.7,0-4.9-2.2-4.9-4.9c0-2.7,2.2-4.9,4.9-4.9s4.9,2.2,4.9,4.9l0,0
		C131.8,277.2,129.6,279.4,126.9,279.4z M305.8,233.3c-3-0.1-6.1-0.2-9.1-0.4c-6-0.4-12.1-0.9-18-1.6l-7-0.8l6.6-2.4
		c8.3-3.1,16.9-5.7,25.5-7.8c-5.9,3.1-11.9,5.8-18.1,8.4c3.8,0.4,7.5,0.9,11.3,1.4c3,0.5,6,0.9,9,1.4s6,1.1,8.9,1.8
		C311.9,233.4,308.9,233.3,305.8,233.3L305.8,233.3z"/>
</g>
</svg>
