<?xml version="1.0" encoding="utf-8"?>
<!-- Generator: Adobe Illustrator 19.2.0, SVG Export Plug-In . SVG Version: 6.00 Build 0)  -->
<svg version="1.1" id="Layer_2" xmlns="http://www.w3.org/2000/svg" xmlns:xlink="http://www.w3.org/1999/xlink" x="0px" y="0px"
	 viewBox="0 0 500 400" style="enable-background:new 0 0 500 400;" xml:space="preserve">
<style type="text/css">
	.st0{fill:#A6A8AB;}
	.st1{fill:#FFFFFF;}
	.st2{fill:#929497;}
</style>
<title>cuba_flash_logo</title>
<g>
	<path class="st0" d="M179,184.6h120.4l-38.6,51.3l55.3-51.3c5.3,0,9.6-4.3,9.6-9.6l0,0v-35.7c0-5.3-4.3-9.6-9.6-9.6l0,0H179
		c-5.3,0-9.6,4.3-9.6,9.6V175C169.4,180.3,173.7,184.6,179,184.6C179,184.6,179,184.6,179,184.6z"/>
	<path class="st0" d="M247.5,280.6c-9.2,0-18.3-2.4-26.3-7l-52-30C153,234.1,143,216.8,143,198v-60.1c0-18.8,10-36.1,26.3-45.5
		l52-30c16.2-9.4,36.3-9.4,52.5,0l52,30c16.2,9.4,26.2,26.7,26.3,45.5V198c0,18.8-10,36.1-26.3,45.5l-52,30
		C265.8,278.1,256.7,280.6,247.5,280.6z M247.5,67.2c-7.2,0-14.2,1.9-20.4,5.5l-52,30.1c-12.6,7.3-20.4,20.7-20.4,35.3v60.1
		c0,14.6,7.8,28,20.4,35.3l52,30c12.6,7.3,28.1,7.3,40.8,0l52-30c12.6-7.3,20.4-20.7,20.4-35.3v-60.1c0-14.5-7.8-28-20.4-35.2
		l-52-30.1C261.7,69,254.7,67.2,247.5,67.2z"/>
	<path class="st0" d="M237.4,240.9h20.1c2.1,0,3.8,1.7,3.8,3.8v5.4c0,2.1-1.7,3.8-3.8,3.8h-20.1c-2.1,0-3.8-1.7-3.8-3.8v-5.4
		C233.7,242.6,235.4,240.9,237.4,240.9z"/>
	<path class="st0" d="M106.3,310h7.1c1.5,0,2.3,0.9,2.3,2.6c-0.1,1.6-0.9,2.4-2.3,2.4H106c-2.5-0.1-4.6,1.6-5,4.1
		c-0.1,0.5-0.1,1.1-0.1,1.7v13c0,2.8,1.1,4.6,3.2,5.5c0.5,0.2,1,0.2,1.5,0.3h7.2c2,0,2.9,0.9,2.9,2.6c0.1,1.2-0.7,2.3-1.9,2.4h-8.1
		c-4.6,0-7.8-2.4-9.6-7.3c-0.1-0.9-0.2-1.9-0.3-2.8v-14.3c0-4.6,2.3-7.9,6.9-9.7C103.9,310.1,105.1,310,106.3,310z"/>
	<path class="st0" d="M128,310c1.6,0,2.4,0.7,2.4,2.2v21.6c0,2.8,1.1,4.6,3.2,5.5c0.5,0.2,1,0.2,1.5,0.3h10.7v-26.6
		c0-2,0.8-2.9,2.3-2.9h0.1c1.7,0,2.6,0.7,2.6,2.2v30.3c0,1.4-0.8,2-2.4,2h-13.1c-4.6,0-7.8-2.4-9.6-7.3c-0.1-0.9-0.2-1.9-0.3-2.8
		v-21.7c-0.2-1.3,0.6-2.5,1.8-2.7C127.5,310,127.7,310,128,310z"/>
	<path class="st0" d="M162.8,295.2c1.3-0.2,2.4,0.8,2.6,2c0,0.2,0,0.4,0,0.7v41.7h10.4c1.5,0,2.9-1,4-2.9c0.3-0.6,0.4-1.3,0.4-2V320
		c0-3-1.7-4.7-5.1-5h-4.5c-1.5,0-2.3-0.9-2.3-2.6c0.1-1.6,0.9-2.4,2.3-2.4h4.6c4.9,0,8.2,2.5,9.7,7.5c0.1,0.6,0.2,1.3,0.3,1.9v15.2
		c0,4.9-2.6,8.1-7.8,9.7c-0.6,0.1-1.2,0.1-1.8,0.1h-12.9c-1.5,0-2.2-0.9-2.2-2.6v-44.5C160.4,296.1,161.2,295.4,162.8,295.2z"/>
	<path class="st0" d="M199.5,310h10c4.6,0,7.8,2.3,9.6,6.9c0.3,1,0.4,1.9,0.4,2.9v22.5c0.1,1.1-0.8,2.1-2,2.2c-0.1,0-0.1,0-0.2,0
		h-12.9c-4.1,0-7.1-2.2-9.1-6.5c-0.4-1.1-0.5-2.3-0.5-3.5v-0.3c0.1-2.7,1.3-5.2,3.2-7c1.7-1.6,3.9-2.5,6.3-2.4h4.1
		c2,0,2.9,0.9,2.9,2.6c0.1,1.2-0.7,2.3-1.9,2.4h-5.2c-1.5,0-2.9,1-4,2.9c-0.3,0.7-0.4,1.3-0.4,2c0,2.2,1.3,3.8,4,4.7h10.7v-19.8
		c0-2.1-1.3-3.9-3.3-4.5c-0.6-0.2-1.2-0.2-1.8-0.3h-9.8c-1.5,0-2.3-0.9-2.3-2.6C197.4,310.8,198.1,310,199.5,310z"/>
	<path class="st0" d="M232.2,318.5h19.9c1.3-0.1,2.4,0.8,2.6,2c0,0.2,0,0.3,0,0.5c0.1,1.2-0.7,2.3-1.9,2.4c-0.2,0-0.4,0-0.6,0h-19.6
		c-1.3,0.1-2.4-0.8-2.6-2c0-0.2,0-0.3,0-0.5v-0.3c-0.1-1.1,0.8-2.1,2-2.2C232,318.5,232.1,318.5,232.2,318.5z"/>
	<path class="st0" d="M276.6,295.2h0.1c1.8,0,2.9,0.4,3.2,1.2c0.2,0.8,0.3,1.3,0.3,1.4c0.1,1.2-0.7,2.3-1.9,2.4h-1.7
		c-3.1,0-5,0.9-5.6,2.6c-0.2,0-0.4,0.6-0.6,1.8v36.7c0,2.2-0.7,3.3-2.2,3.3h-0.4c-1.7,0-2.6-1.1-2.6-3.2V315h-2.3
		c-1.3,0.1-2.4-0.8-2.6-2c0-0.2,0-0.3,0-0.5c-0.1-1.2,0.7-2.3,1.9-2.4c0.2,0,0.4,0,0.6,0h2.3v-2.6c0-4.8,1-7.9,2.9-9.2
		c0.8-1.3,2.5-2.2,5-2.8C274.2,295.3,275.4,295.2,276.6,295.2z M275.4,310.1h2.4c1.5,0,2.3,0.9,2.3,2.6c-0.1,1.6-0.9,2.4-2.3,2.4
		h-2.4c-1.5,0-2.3-0.9-2.3-2.6C273.2,310.8,274,310,275.4,310.1L275.4,310.1z"/>
	<path class="st0" d="M292.2,295.2c1.2-0.1,2.3,0.7,2.4,2c0,0,0,0.1,0,0.1v38.9c0,1.9,0.5,2.9,1.5,3.2c0.4,0.1,0.8,0.2,1.2,0.3h2.4
		c1.5,0,2.3,0.9,2.3,2.6c-0.1,1.6-0.9,2.4-2.3,2.4h-2.8c-3.8,0-6.2-1.9-7.2-5.6c-0.1-1.2-0.1-2-0.1-2.6v-37.8c0-2.2,0.8-3.3,2.3-3.3
		H292.2L292.2,295.2z"/>
	<path class="st0" d="M315.8,310h10c4.6,0,7.8,2.3,9.6,6.9c0.3,1,0.4,1.9,0.4,2.9v22.5c0.1,1.1-0.8,2.1-2,2.2c-0.1,0-0.1,0-0.2,0
		h-12.9c-4.1,0-7.1-2.2-9.1-6.5c-0.4-1.1-0.5-2.3-0.5-3.5v-0.3c0.1-2.7,1.3-5.2,3.2-7c1.7-1.6,3.9-2.5,6.3-2.4h4.1
		c2,0,2.9,0.9,2.9,2.6c0.1,1.2-0.7,2.3-1.9,2.4h-5.2c-1.5,0-2.9,1-4,2.9c-0.3,0.7-0.4,1.3-0.4,2c0,2.2,1.3,3.8,4,4.7h10.7v-19.8
		c0-2.1-1.3-3.9-3.3-4.5c-0.6-0.2-1.2-0.2-1.8-0.3h-9.8c-1.5,0-2.3-0.9-2.3-2.6C313.7,310.8,314.4,310,315.8,310z"/>
	<path class="st0" d="M356.7,310h8.8c1.5,0,2.3,0.9,2.3,2.6c-0.1,1.6-0.9,2.4-2.3,2.4h-9.1c-3.9,0-5.9,1.2-5.9,3.7
		c0,1.9,1.4,3.3,4.2,4.2c7.7,3.7,12,5.9,12.9,6.6c1.7,1.5,2.6,3.7,2.6,6v0.6c0,4.1-2.4,6.7-7.3,7.9c-1.2,0.3-2.4,0.4-3.6,0.4h-11.8
		c-1.5,0-2.3-0.9-2.3-2.6c0.1-1.6,0.9-2.4,2.3-2.4h12c3.3,0,5.2-1,5.6-2.9v-1.2c0-1.6-1.5-3-4.5-4c-7.1-3.5-11-5.5-11.9-6
		c-2.2-1.6-3.5-4.3-3.3-7c0-3.9,2.4-6.6,7.3-8.1C354.2,310.1,355.5,310,356.7,310z"/>
	<path class="st0" d="M381.9,295.2c1.7,0,2.6,1.1,2.6,3.2V310h9.6c4.4,0,7.6,2.2,9.6,6.5c0.3,1.1,0.5,2.3,0.5,3.5v22
		c0,1.7-0.7,2.6-2.2,2.6h-0.6c-1.1,0.1-2.1-0.8-2.2-2c0-0.1,0-0.1,0-0.2v-21.6c0-3-1.2-4.9-3.6-5.6l-1.5-0.1h-9.6v26.6
		c0,2-0.7,2.9-2.2,2.9h-0.4c-1.6,0-2.4-0.7-2.4-2v-45.2c-0.1-1.1,0.7-2,1.8-2c0,0,0.1,0,0.1,0L381.9,295.2z"/>
	<path class="st1" d="M291.4,122.8l13.1,13.7c4.5,4.7,4.3,12.1-0.4,16.6c-0.1,0.1-0.2,0.2-0.3,0.3L255.3,196
		c-4.4,3.9-11.1,3.9-15.5,0l-48.4-42.6c-4.9-4.3-5.3-11.7-1-16.6c0.1-0.1,0.2-0.2,0.3-0.3l13.1-13.7c2.2-2.3,5.3-3.6,8.5-3.6h70.6
		C286.1,119.1,289.2,120.5,291.4,122.8z"/>
	<path class="st0" d="M247.5,202.3c-3.7,0-7.2-1.3-10-3.8l-48.4-42.6c-6.3-5.5-6.9-15-1.4-21.2c0.2-0.2,0.3-0.3,0.5-0.5l13.1-13.7
		c2.9-3,6.8-4.6,10.9-4.6h70.6c4.1,0,8.1,1.7,10.9,4.6l13,13.7c5.8,6,5.6,15.5-0.4,21.3c-0.2,0.2-0.3,0.3-0.5,0.5l-48.4,42.6
		C254.7,201,251.2,202.3,247.5,202.3z M212.2,122.5c-2.3,0-4.5,0.9-6.1,2.6l-13,13.7c-3.2,3.4-3.1,8.7,0.3,11.9
		c0.1,0.1,0.2,0.1,0.2,0.2l48.3,42.6c3.2,2.7,7.9,2.7,11.1,0l48.4-42.6c3.5-3.1,3.8-8.4,0.7-11.9c-0.1-0.1-0.1-0.2-0.2-0.2
		l-13.1-13.7c-1.6-1.7-3.8-2.6-6.1-2.6L212.2,122.5L212.2,122.5z"/>
	<rect x="211" y="133.6" class="st2" width="73.1" height="3.4"/>
	<rect x="211" y="141.7" class="st2" width="73.1" height="3.4"/>
	<rect x="211" y="149.8" class="st2" width="73.1" height="3.4"/>
	<rect x="211" y="157.9" class="st2" width="73.1" height="3.4"/>
</g>
</svg>
