<?xml version="1.0" encoding="utf-8"?>
<!-- Generator: Adobe Illustrator 19.2.0, SVG Export Plug-In . SVG Version: 6.00 Build 0)  -->
<svg version="1.1" id="Layer_1" xmlns="http://www.w3.org/2000/svg" xmlns:xlink="http://www.w3.org/1999/xlink" x="0px" y="0px"
	 viewBox="0 0 500 400" style="enable-background:new 0 0 500 400;" xml:space="preserve">
<style type="text/css">
	.st0{fill:#FFDD15;}
	.st1{fill:#EC1C24;}
	.st2{fill:#F9EC31;}
	.st3{fill:#F05A28;}
	.st4{fill:#EE4036;}
	.st5{fill:#BE1E2D;}
	.st6{fill:#FAAF40;}
	.st7{fill:#F6921E;}
	.st8{fill:#F16522;}
</style>
<title>primary_logo</title>
<g>
	<path class="st0" d="M291.8,98c-0.9-0.4-1.9-0.2-2.5,0.6c-2.6,2.7-5.2,5.2-7.9,7.9c3.2,4,5.5,8.6,6.9,13.5c0.5,1.9,0.9,3.9,1.2,5.9
		c0,0.8,0.6,1.4,1.3,1.5c0.1,0,0.2,0,0.3,0c3.1-0.1,6.2-0.1,9.3,0l0,0c2-10.6,3.4-21.2,4.5-31.8C301.3,98.6,296.3,99.5,291.8,98z"/>
	<path class="st1" d="M289.6,136.7c-1,7-3.9,13.7-8.2,19.3c2.9,2.9,5.7,5.7,8.6,8.5c0.2,0.1,0.4,0.2,0.6,0.2l0.5-1.5
		c3-8.7,5.5-17.5,7.4-26.4C295.6,136.8,292.7,136.7,289.6,136.7z"/>
	<path class="st2" d="M209,126.5c0.6,0.2,1.3-0.2,1.4-0.8c0-0.1,0-0.1,0-0.2c0.9-6.7,3.5-13,7.6-18.4c0.1-0.2,0.2-0.4,0.4-0.8
		c-2.8-2.8-5.6-5.6-8.5-8.3c-0.5-0.2-1.2-0.2-1.7,0c-4.4,1.5-9.3,0.7-12.9-2.2c1,8.6,2,17.3,3.2,25.9c0.2,1.6,0.5,3.1,0.7,4.7h0.4
		C202.8,126.4,205.9,126.5,209,126.5z"/>
	<path class="st3" d="M226.5,109.6c-12.7,13.9-10.1,34.3,1.7,44.7c3.8-2,7.6-4,11.4-6.1c2.1-1.2,2.6-4.6,1.2-6.6
		c-1-1.3-1.9-2.7-2.5-4.2c-1.9-4.8-2-9.9-1.3-15c0.8-6.5,5.4-10.7,12.1-11.2s12,3,13.5,9.2c0.7,3.3,0.9,6.7,0.7,10
		c0,4.1-1.4,8-3.9,11.2c-1.5,1.8-1,5.3,1,6.5c3.8,2.1,7.7,4.1,11.5,6.1c12-10.5,14.5-31.1,1.5-45.1c-12.2-12.8-32.4-13.4-45.2-1.2
		C227.5,108.6,227,109.1,226.5,109.6z"/>
	<path class="st4" d="M293.4,256.1c0.1-1.2-0.5-2.3-1.5-2.8c-8.3-4.8-15.8-10.8-22.3-17.9c-2.8-2.8-4.7-6.4-5.5-10.3l5-0.2
		c0-2.6,0-5,0-7.5c-0.2-0.5-0.7-0.8-1.2-0.9c-0.8-0.1-1.6-0.1-2.4,0l-0.5-0.6l13.8-24l3.2,4.2c2.8-1.9,5.5-3.7,8.1-5.7
		c0.1-0.1,0.2-0.3,0.2-0.4c-3.5-1.7-6.1-4.7-7.2-8.4c-0.9-2.9-0.8-6,0.2-8.8c0.2-0.5,0.1-1.1-0.2-1.6c-2.7-2.8-5.5-5.6-8.3-8.5
		c-4.7,3.7-10.1,6.3-15.9,7.6l-0.3,0.1c-1.2,0.3-2.9,0.2-3.6,1s-0.2,2.4-0.2,3.6c0,2.4,0,4.8,0,7.2c-0.1,1,0.5,1.9,1.4,2.2
		c5.3,2.6,8.3,8.3,7.5,14.2c-1.1,7.5-8,12.8-15.6,11.7c-4.9-0.7-9.1-4-10.9-8.6c-2.6-6.5,0.2-13.9,6.4-17.1c1.1-0.4,1.8-1.5,1.7-2.7
		c-0.1-3.2,0-6.3,0-9.5c0-0.8,0-1.4-1-1.5c-6.8-0.9-13.2-3.6-18.6-7.8c-0.1-0.1-0.3-0.1-0.5-0.2c-2.8,2.8-5.6,5.5-8.3,8.4
		c-0.3,0.4-0.3,1-0.1,1.4c2.4,7.3-0.7,14.3-6.9,17.2c0,0.2,0.1,0.3,0.2,0.5c2.6,1.9,5.3,3.7,8.1,5.7l3.2-4.2l13.8,24
		c-0.2,0.2-0.4,0.4-0.6,0.5c-3.5,0.5-3.5,0.5-3.5,4.3c0,1.4,0,2.7,0,4.4h5.4c-0.7,2-1.6,4-2.6,6c-3.9,6.4-9.5,11.1-15.4,15.5
		c-3.4,2.5-7,4.7-10.4,7.1c-0.7,0.6-1.1,1.4-1.2,2.4c-0.2,2.1,0,4.3,0,6.6H200v6.5h100.3v-6.5h-6.7
		C293.4,260.2,293.3,258.1,293.4,256.1z"/>
	<path class="st5" d="M218.4,156.1c-1.6-2.3-3-4.7-4.2-7.2c-1.4-3.8-2.6-7.7-3.7-11.6c0-0.7-0.6-1.3-1.3-1.3c-0.1,0-0.1,0-0.2,0
		c-2.6,0-5.3,0-8,0c2.2,9.7,4.9,19.2,8.1,28.6c0.3,0,0.6-0.1,0.9-0.3C213,161.6,215.7,158.8,218.4,156.1z"/>
	<path class="st6" d="M245.2,80.3c0.1-0.9-0.4-1.8-1.3-2.1c-5.5-2.7-8.6-8.7-7.5-14.8v-0.1h-43.3v8.6c-6-0.3-13.2-4.4-12.5-11.8
		c0.2-2,0.3-3.9,0.4-5.9h-30.2c0.5,9.9,0.7,19.8,1.6,29.7c0.7,8,1.8,16,3.4,24c1.8,9.5,4.5,18.8,8.1,27.8l7-2.6
		c-0.3-2.5,0-4.9,1-7.2c-3.5-10-5.9-20.3-7.2-30.8c-1.2-9.3-1.8-18.6-2.7-27.9c0-0.5,0-1,0-1.8c2.5,0,4.7-0.1,6.8,0
		c0.6,0.1,1.1,0.5,1.4,1c2.9,10.3,10.6,14.5,19.8,16.4c1.3-7.5,8.4-12.5,15.9-11.2c2.2,0.4,4.2,1.3,6,2.6c4.7,3.5,6.6,9.6,4.7,15.2
		c-0.5,1-0.2,2.2,0.7,2.9c2.6,2.5,5.1,5.1,7.2,7.3c4.3-2.1,8.2-4.2,12.3-6c2.2-0.8,4.5-1.4,6.8-1.7c0.7,0,1.4-0.5,1.4-1.3
		c0-0.1,0-0.3,0-0.4C245.1,86.8,245.1,83.5,245.2,80.3z"/>
	<path class="st1" d="M180.7,144.8l-0.2-0.4c-3-1-5.5-2.9-7.3-5.5l-6.7,2.5c1.6,3.4,3.3,6.7,5.3,10c4.9,8.5,11.3,16.1,18.8,22.3
		c1-3.7,3.5-6.8,6.9-8.6C190.7,159.5,185,152.6,180.7,144.8z"/>
	<path class="st7" d="M307.7,77.7c1,1.5,1.6,3.3,1.9,5.1c6-1.2,11.7-3.3,15.7-8.4c1.6-2.4,3-5,4-7.7c0.4-1,0.8-1.6,2-1.5
		c2,0.1,4.1,0,6.2,0c0,1.7,0,3.4,0,5.1c-0.4,11.2-1.6,22.3-3.8,33.3c-1.4,7.5-3.4,14.9-5.9,22.2c0.4,0.8,0.7,1.7,0.9,2.6
		c0.4,1.7,0.4,3.4,0.2,5.1l6.8,2.5c1.6-3.9,3-7.8,4.2-11.8c4-12.8,6.5-26.1,7.5-39.5c0.7-10.2,1.1-20.3,1.6-30.5h-30.2
		c0.1,2.6,0.5,5.3,0.3,7.9c-0.2,4.5-4,8.1-9.8,9.6c-0.8,0.2-1.6,0.3-2.6,0.5v-8.8h-43.4c1.2,6-1.9,12.1-7.4,14.9
		c-0.9,0.3-1.5,1.2-1.4,2.2c0.1,3.3,0,6.5,0,9.8c0,0.8,0,1.4,1,1.5c6.8,0.9,13.2,3.6,18.6,7.8c0.1,0.1,0.3,0.1,0.4,0.2
		c2.8-2.8,5.7-5.6,8.5-8.5c0.2-0.5,0.2-1.1,0-1.6c-2.4-7.2,1.4-15,8.6-17.4C297.7,70.1,304.3,72.3,307.7,77.7z"/>
	<path class="st5" d="M326.5,139.3c-1.5,2.1-3.6,3.7-6,4.7c-0.3,0.1-0.6,0.2-0.9,0.3c-4.3,8-10.2,15-17.2,20.8
		c3.5,1.7,6,4.8,7.1,8.5c4.7-3.9,8.9-8.3,12.6-13.2c4.4-5.8,8.1-12,11.2-18.6L326.5,139.3z"/>
	<path class="st8" d="M199.5,289.4v3.3h-16.1v8.7h13.2v3.2h-13.2v14h-3.2v-29.3H199.5L199.5,289.4z"/>
	<path class="st8" d="M206.8,289.4v18.1c0,2.3,0.9,4.6,2.6,6.2c3.5,3.4,9.1,3.4,12.6,0c1.7-1.6,2.6-3.8,2.6-6.2v-18.1h3.3v18.1
		c0.1,3.2-1.2,6.3-3.5,8.5c-4.8,4.7-12.4,4.7-17.2,0c-2.3-2.2-3.6-5.3-3.5-8.5v-18.1H206.8L206.8,289.4z"/>
	<path class="st8" d="M238.2,289.4l19.8,24.4v-24.4h3.2v29.3h-3.5l-20.1-24.7v24.7h-3.2v-29.3H238.2z"/>
	<path class="st8" d="M290.4,289.4l-14.5,14.2l14.4,15.1h-4.7l-13.8-14.8v14.8h-3.2v-29.3h3.2V303l14.3-13.7H290.4z"/>
	<path class="st8" d="M319.8,289.4l-11.8,16.3v12.9h-3.2v-12.8l-11.8-16.3h4l9.3,12.9l9.3-12.9L319.8,289.4L319.8,289.4z"/>
	<path class="st8" d="M202,327.9l-5.7,17.3h-1.8l-4.4-13.9l-4.5,13.9h-1.8l-5.6-17.3l1.8-0.6l4.7,14.5l4.5-14h1.8l4.5,14l4.8-14.5
		L202,327.9z"/>
	<path class="st8" d="M221.6,336.6c0,5.1-4.1,9.3-9.2,9.3l0,0c-1.2,0-2.5-0.2-3.6-0.7c-1.1-0.5-2.1-1.1-3-2c-0.9-0.8-1.5-1.8-2-2.9
		c-2-4.7,0.2-10.1,4.9-12.1c1.2-0.5,2.4-0.7,3.7-0.7c2.5,0,4.8,1,6.6,2.7C220.6,331.8,221.6,334.1,221.6,336.6z M212.3,343.8
		c2,0,3.8-0.7,5.2-2.1c2.8-2.8,2.9-7.3,0.1-10.2c0,0-0.1-0.1-0.1-0.1c-2.9-2.8-7.5-2.8-10.4,0c-2.8,2.8-2.9,7.3-0.1,10.1
		c0,0,0.1,0.1,0.1,0.1C208.5,343.1,210.4,343.9,212.3,343.8z"/>
	<path class="st8" d="M228.2,338H226v7.2H224v-17.4h5.6c1.4,0,2.8,0.5,3.9,1.5c2,1.7,2.2,4.8,0.4,6.7c0,0.1-0.1,0.1-0.1,0.2
		c-0.9,0.9-2,1.5-3.3,1.7l5.1,7.3h-2.4L228.2,338z M226,336.1h3.7c0.9,0,1.8-0.3,2.6-0.9c0.7-0.5,1.1-1.4,1.1-2.2
		c0-0.9-0.4-1.7-1.1-2.2c-0.7-0.6-1.6-0.9-2.6-0.9H226V336.1L226,336.1z"/>
	<path class="st8" d="M240.4,327.9v15.5h9.1v1.9h-11v-17.4L240.4,327.9L240.4,327.9z"/>
	<path class="st8" d="M257.2,327.9c2.5-0.1,4.9,0.9,6.8,2.6c0.9,0.8,1.6,1.7,2,2.8c1,2.1,1,4.6,0,6.8c-0.5,1-1.2,2-2,2.8
		c-1.8,1.7-4.3,2.6-6.8,2.6h-5.3v-17.4L257.2,327.9L257.2,327.9z M257.2,343.3c2,0,3.9-0.7,5.4-2c2.6-2.2,3-6.1,0.8-8.8
		c-0.2-0.3-0.5-0.6-0.8-0.8c-1.5-1.3-3.4-2-5.4-2h-3.3v13.5L257.2,343.3L257.2,343.3z"/>
	<path class="st8" d="M283.2,329.3c-2,0-3.9,0.7-5.3,2.1c-2.8,2.7-2.9,7.3-0.2,10.1c0.1,0.1,0.1,0.1,0.2,0.2
		c1.4,1.4,3.3,2.2,5.3,2.1c1.8,0,3.6-0.6,5.1-1.6l1.1,1.6c-1,0.7-2.2,1.3-3.4,1.6c-0.9,0.2-1.8,0.3-2.8,0.3c-1.3,0-2.5-0.2-3.6-0.7
		c-2.2-0.9-4-2.7-5-4.9c-1-2.3-1-4.9,0-7.2c1.5-3.4,4.9-5.6,8.7-5.6c0.9,0,1.9,0.1,2.8,0.3c1.2,0.3,2.4,0.9,3.4,1.6l-1.1,1.6
		C286.8,329.9,285,329.3,283.2,329.3z"/>
	<path class="st8" d="M293.5,327.9v10.8c0,1.4,0.5,2.7,1.6,3.7c2.1,2,5.4,2,7.5,0c1-1,1.6-2.3,1.6-3.7v-10.8h1.9v10.8
		c0,1.9-0.7,3.7-2.1,5c-2.8,2.8-7.4,2.8-10.2,0c-1.4-1.3-2.2-3.1-2.1-5v-10.8H293.5z"/>
	<path class="st8" d="M321.9,333.5c0,1.5-0.6,3-1.8,4c-1.2,1.1-2.8,1.7-4.4,1.7h-3.9v6.1h-1.9v-17.4h5.9c1.6,0,3.2,0.6,4.4,1.7
		C321.3,330.5,321.9,332,321.9,333.5z M311.8,337.3h3.9c1.1,0,2.2-0.4,3-1.1c0.8-0.6,1.3-1.6,1.2-2.6c0-1-0.5-2-1.2-2.6
		c-0.8-0.7-1.9-1.1-3-1.1h-3.9V337.3L311.8,337.3z"/>
</g>
</svg>
